<svg id="visual" viewBox="0 0 1920 1080" width="1920" height="1080" xmlns="http://www.w3.org/2000/svg" xmlns:xlink="http://www.w3.org/1999/xlink" version="1.1"><path d="M0 33L29.2 33C58.3 33 116.7 33 174.8 38.5C233 44 291 55 349.2 58.7C407.3 62.3 465.7 58.7 523.8 53.2C582 47.7 640 40.3 698.2 38.5C756.3 36.7 814.7 40.3 872.8 40.3C931 40.3 989 36.7 1047.2 33.2C1105.3 29.7 1163.7 26.3 1221.8 26.3C1280 26.3 1338 29.7 1396.2 38.7C1454.3 47.7 1512.7 62.3 1570.8 60.7C1629 59 1687 41 1745.2 37.3C1803.3 33.7 1861.7 44.3 1890.8 49.7L1920 55L1920 0L1890.8 0C1861.7 0 1803.3 0 1745.2 0C1687 0 1629 0 1570.8 0C1512.7 0 1454.3 0 1396.2 0C1338 0 1280 0 1221.8 0C1163.7 0 1105.3 0 1047.2 0C989 0 931 0 872.8 0C814.7 0 756.3 0 698.2 0C640 0 582 0 523.8 0C465.7 0 407.3 0 349.2 0C291 0 233 0 174.8 0C116.7 0 58.3 0 29.2 0L0 0Z" fill="#155a89"></path><path d="M0 87L29.2 87C58.3 87 116.7 87 174.8 90.7C233 94.3 291 101.7 349.2 112.5C407.3 123.3 465.7 137.7 523.8 137.7C582 137.7 640 123.3 698.2 121.5C756.3 119.7 814.7 130.3 872.8 135.7C931 141 989 141 1047.2 130.3C1105.3 119.7 1163.7 98.3 1221.8 100.2C1280 102 1338 127 1396.2 141.3C1454.3 155.7 1512.7 159.3 1570.8 146.8C1629 134.3 1687 105.7 1745.2 102C1803.3 98.3 1861.7 119.7 1890.8 130.3L1920 141L1920 53L1890.8 47.7C1861.7 42.3 1803.3 31.7 1745.2 35.3C1687 39 1629 57 1570.8 58.7C1512.7 60.3 1454.3 45.7 1396.2 36.7C1338 27.7 1280 24.3 1221.8 24.3C1163.7 24.3 1105.3 27.7 1047.2 31.2C989 34.7 931 38.3 872.8 38.3C814.7 38.3 756.3 34.7 698.2 36.5C640 38.3 582 45.7 523.8 51.2C465.7 56.7 407.3 60.3 349.2 56.7C291 53 233 42 174.8 36.5C116.7 31 58.3 31 29.2 31L0 31Z" fill="#11537f"></path><path d="M0 131L29.2 129.2C58.3 127.3 116.7 123.7 174.8 130.8C233 138 291 156 349.2 175.8C407.3 195.7 465.7 217.3 523.8 222.7C582 228 640 217 698.2 217C756.3 217 814.7 228 872.8 229.8C931 231.7 989 224.3 1047.2 202.7C1105.3 181 1163.7 145 1221.8 139.7C1280 134.3 1338 159.7 1396.2 179.5C1454.3 199.3 1512.7 213.7 1570.8 210C1629 206.3 1687 184.7 1745.2 184.7C1803.3 184.7 1861.7 206.3 1890.8 217.2L1920 228L1920 139L1890.8 128.3C1861.7 117.7 1803.3 96.3 1745.2 100C1687 103.7 1629 132.3 1570.8 144.8C1512.7 157.3 1454.3 153.7 1396.2 139.3C1338 125 1280 100 1221.8 98.2C1163.7 96.3 1105.3 117.7 1047.2 128.3C989 139 931 139 872.8 133.7C814.7 128.3 756.3 117.7 698.2 119.5C640 121.3 582 135.7 523.8 135.7C465.7 135.7 407.3 121.3 349.2 110.5C291 99.7 233 92.3 174.8 88.7C116.7 85 58.3 85 29.2 85L0 85Z" fill="#0d4b75"></path><path d="M0 185L29.2 185C58.3 185 116.7 185 174.8 194C233 203 291 221 349.2 235.3C407.3 249.7 465.7 260.3 523.8 260.3C582 260.3 640 249.7 698.2 251.5C756.3 253.3 814.7 267.7 872.8 271.2C931 274.7 989 267.3 1047.2 249.3C1105.3 231.3 1163.7 202.7 1221.8 195.5C1280 188.3 1338 202.7 1396.2 220.7C1454.3 238.7 1512.7 260.3 1570.8 255C1629 249.7 1687 217.3 1745.2 217.3C1803.3 217.3 1861.7 249.7 1890.8 265.8L1920 282L1920 226L1890.8 215.2C1861.7 204.3 1803.3 182.7 1745.2 182.7C1687 182.7 1629 204.3 1570.8 208C1512.7 211.7 1454.3 197.3 1396.2 177.5C1338 157.7 1280 132.3 1221.8 137.7C1163.7 143 1105.3 179 1047.2 200.7C989 222.3 931 229.7 872.8 227.8C814.7 226 756.3 215 698.2 215C640 215 582 226 523.8 220.7C465.7 215.3 407.3 193.7 349.2 173.8C291 154 233 136 174.8 128.8C116.7 121.7 58.3 125.3 29.2 127.2L0 129Z" fill="#08446c"></path><path d="M0 206L29.2 207.8C58.3 209.7 116.7 213.3 174.8 224.2C233 235 291 253 349.2 265.7C407.3 278.3 465.7 285.7 523.8 289.3C582 293 640 293 698.2 300.2C756.3 307.3 814.7 321.7 872.8 321.7C931 321.7 989 307.3 1047.2 291.2C1105.3 275 1163.7 257 1221.8 253.3C1280 249.7 1338 260.3 1396.2 271C1454.3 281.7 1512.7 292.3 1570.8 283.3C1629 274.3 1687 245.7 1745.2 247.5C1803.3 249.3 1861.7 281.7 1890.8 297.8L1920 314L1920 280L1890.8 263.8C1861.7 247.7 1803.3 215.3 1745.2 215.3C1687 215.3 1629 247.7 1570.8 253C1512.7 258.3 1454.3 236.7 1396.2 218.7C1338 200.7 1280 186.3 1221.8 193.5C1163.7 200.7 1105.3 229.3 1047.2 247.3C989 265.3 931 272.7 872.8 269.2C814.7 265.7 756.3 251.3 698.2 249.5C640 247.7 582 258.3 523.8 258.3C465.7 258.3 407.3 247.7 349.2 233.3C291 219 233 201 174.8 192C116.7 183 58.3 183 29.2 183L0 183Z" fill="#043d62"></path><path d="M0 239L29.2 249.7C58.3 260.3 116.7 281.7 174.8 299.7C233 317.7 291 332.3 349.2 336C407.3 339.7 465.7 332.3 523.8 328.7C582 325 640 325 698.2 332.2C756.3 339.3 814.7 353.7 872.8 357.3C931 361 989 354 1047.2 343.2C1105.3 332.3 1163.7 317.7 1221.8 319.3C1280 321 1338 339 1396.2 346.3C1454.3 353.7 1512.7 350.3 1570.8 336C1629 321.7 1687 296.3 1745.2 296.3C1803.3 296.3 1861.7 321.7 1890.8 334.3L1920 347L1920 312L1890.8 295.8C1861.7 279.7 1803.3 247.3 1745.2 245.5C1687 243.7 1629 272.3 1570.8 281.3C1512.7 290.3 1454.3 279.7 1396.2 269C1338 258.3 1280 247.7 1221.8 251.3C1163.7 255 1105.3 273 1047.2 289.2C989 305.3 931 319.7 872.8 319.7C814.7 319.7 756.3 305.3 698.2 298.2C640 291 582 291 523.8 287.3C465.7 283.7 407.3 276.3 349.2 263.7C291 251 233 233 174.8 222.2C116.7 211.3 58.3 207.7 29.2 205.8L0 204Z" fill="#013659"></path><path d="M0 260L29.2 270.8C58.3 281.7 116.7 303.3 174.8 323.2C233 343 291 361 349.2 370C407.3 379 465.7 379 523.8 377.2C582 375.3 640 371.7 698.2 373.5C756.3 375.3 814.7 382.7 872.8 384.5C931 386.3 989 382.7 1047.2 377.2C1105.3 371.7 1163.7 364.3 1221.8 369.7C1280 375 1338 393 1396.2 394.8C1454.3 396.7 1512.7 382.3 1570.8 364.3C1629 346.3 1687 324.7 1745.2 328.3C1803.3 332 1861.7 361 1890.8 375.5L1920 390L1920 345L1890.8 332.3C1861.7 319.7 1803.3 294.3 1745.2 294.3C1687 294.3 1629 319.7 1570.8 334C1512.7 348.3 1454.3 351.7 1396.2 344.3C1338 337 1280 319 1221.8 317.3C1163.7 315.7 1105.3 330.3 1047.2 341.2C989 352 931 359 872.8 355.3C814.7 351.7 756.3 337.3 698.2 330.2C640 323 582 323 523.8 326.7C465.7 330.3 407.3 337.7 349.2 334C291 330.3 233 315.7 174.8 297.7C116.7 279.7 58.3 258.3 29.2 247.7L0 237Z" fill="#003252"></path><path d="M0 563L29.2 561.2C58.3 559.3 116.7 555.7 174.8 550.2C233 544.7 291 537.3 349.2 540.8C407.3 544.3 465.7 558.7 523.8 562.3C582 566 640 559 698.2 562.7C756.3 566.3 814.7 580.7 872.8 598.7C931 616.7 989 638.3 1047.2 633C1105.3 627.7 1163.7 595.3 1221.8 575.5C1280 555.7 1338 548.3 1396.2 546.5C1454.3 544.7 1512.7 548.3 1570.8 534C1629 519.7 1687 487.3 1745.2 485.5C1803.3 483.7 1861.7 512.3 1890.8 526.7L1920 541L1920 388L1890.8 373.5C1861.7 359 1803.3 330 1745.2 326.3C1687 322.7 1629 344.3 1570.8 362.3C1512.7 380.3 1454.3 394.7 1396.2 392.8C1338 391 1280 373 1221.8 367.7C1163.7 362.3 1105.3 369.7 1047.2 375.2C989 380.7 931 384.3 872.8 382.5C814.7 380.7 756.3 373.3 698.2 371.5C640 369.7 582 373.3 523.8 375.2C465.7 377 407.3 377 349.2 368C291 359 233 341 174.8 321.2C116.7 301.3 58.3 279.7 29.2 268.8L0 258Z" fill="#01304e"></path><path d="M0 692L29.2 719C58.3 746 116.7 800 174.8 830.7C233 861.3 291 868.7 349.2 865.2C407.3 861.7 465.7 847.3 523.8 831.2C582 815 640 797 698.2 786.2C756.3 775.3 814.7 771.7 872.8 766.2C931 760.7 989 753.3 1047.2 751.5C1105.3 749.7 1163.7 753.3 1221.8 762.3C1280 771.3 1338 785.7 1396.2 782C1454.3 778.3 1512.7 756.7 1570.8 738.7C1629 720.7 1687 706.3 1745.2 715.3C1803.3 724.3 1861.7 756.7 1890.8 772.8L1920 789L1920 539L1890.8 524.7C1861.7 510.3 1803.3 481.7 1745.2 483.5C1687 485.3 1629 517.7 1570.8 532C1512.7 546.3 1454.3 542.7 1396.2 544.5C1338 546.3 1280 553.7 1221.8 573.5C1163.7 593.3 1105.3 625.7 1047.2 631C989 636.3 931 614.7 872.8 596.7C814.7 578.7 756.3 564.3 698.2 560.7C640 557 582 564 523.8 560.3C465.7 556.7 407.3 542.3 349.2 538.8C291 535.3 233 542.7 174.8 548.2C116.7 553.7 58.3 557.3 29.2 559.2L0 561Z" fill="#012e4a"></path><path d="M0 779L29.2 800.5C58.3 822 116.7 865 174.8 886.5C233 908 291 908 349.2 902.7C407.3 897.3 465.7 886.7 523.8 881.3C582 876 640 876 698.2 870.5C756.3 865 814.7 854 872.8 843.2C931 832.3 989 821.7 1047.2 820C1105.3 818.3 1163.7 825.7 1221.8 836.5C1280 847.3 1338 861.7 1396.2 861.7C1454.3 861.7 1512.7 847.3 1570.8 825.7C1629 804 1687 775 1745.2 778.5C1803.3 782 1861.7 818 1890.8 836L1920 854L1920 787L1890.8 770.8C1861.7 754.7 1803.3 722.3 1745.2 713.3C1687 704.3 1629 718.7 1570.8 736.7C1512.7 754.7 1454.3 776.3 1396.2 780C1338 783.7 1280 769.3 1221.8 760.3C1163.7 751.3 1105.3 747.7 1047.2 749.5C989 751.3 931 758.7 872.8 764.2C814.7 769.7 756.3 773.3 698.2 784.2C640 795 582 813 523.8 829.2C465.7 845.3 407.3 859.7 349.2 863.2C291 866.7 233 859.3 174.8 828.7C116.7 798 58.3 744 29.2 717L0 690Z" fill="#022b46"></path><path d="M0 941L29.2 955.3C58.3 969.7 116.7 998.3 174.8 1010.8C233 1023.3 291 1019.7 349.2 1012.5C407.3 1005.3 465.7 994.7 523.8 996.5C582 998.3 640 1012.7 698.2 1014.5C756.3 1016.3 814.7 1005.7 872.8 994.8C931 984 989 973 1047.2 978.3C1105.3 983.7 1163.7 1005.3 1221.8 1005.3C1280 1005.3 1338 983.7 1396.2 981.8C1454.3 980 1512.7 998 1570.8 998C1629 998 1687 980 1745.2 969.2C1803.3 958.3 1861.7 954.7 1890.8 952.8L1920 951L1920 852L1890.8 834C1861.7 816 1803.3 780 1745.2 776.5C1687 773 1629 802 1570.8 823.7C1512.7 845.3 1454.3 859.7 1396.2 859.7C1338 859.7 1280 845.3 1221.8 834.5C1163.7 823.7 1105.3 816.3 1047.2 818C989 819.7 931 830.3 872.8 841.2C814.7 852 756.3 863 698.2 868.5C640 874 582 874 523.8 879.3C465.7 884.7 407.3 895.3 349.2 900.7C291 906 233 906 174.8 884.5C116.7 863 58.3 820 29.2 798.5L0 777Z" fill="#022942"></path><path d="M0 1081L29.2 1081C58.3 1081 116.7 1081 174.8 1081C233 1081 291 1081 349.2 1081C407.3 1081 465.7 1081 523.8 1081C582 1081 640 1081 698.2 1081C756.3 1081 814.7 1081 872.8 1081C931 1081 989 1081 1047.2 1081C1105.3 1081 1163.7 1081 1221.8 1081C1280 1081 1338 1081 1396.2 1081C1454.3 1081 1512.7 1081 1570.8 1081C1629 1081 1687 1081 1745.2 1081C1803.3 1081 1861.7 1081 1890.8 1081L1920 1081L1920 949L1890.8 950.8C1861.7 952.7 1803.3 956.3 1745.2 967.2C1687 978 1629 996 1570.8 996C1512.7 996 1454.3 978 1396.2 979.8C1338 981.7 1280 1003.3 1221.8 1003.3C1163.7 1003.3 1105.3 981.7 1047.2 976.3C989 971 931 982 872.8 992.8C814.7 1003.7 756.3 1014.3 698.2 1012.5C640 1010.7 582 996.3 523.8 994.5C465.7 992.7 407.3 1003.3 349.2 1010.5C291 1017.7 233 1021.3 174.8 1008.8C116.7 996.3 58.3 967.7 29.2 953.3L0 939Z" fill="#03273e"></path></svg>